<mxfile host="app.diagrams.net" modified="2021-11-08T19:22:18.412Z" agent="5.0 (Windows NT 10.0; Win64; x64) AppleWebKit/537.36 (KHTML, like Gecko) Chrome/94.0.4606.81 Safari/537.36 OPR/80.0.4170.91" etag="Qr14uk8gwyMoSOCDDznV" version="15.7.0" type="github">
  <diagram id="e7UpI3-_oJ12gAYYC6TY" name="Page-1">
    <mxGraphModel dx="2208" dy="833" grid="1" gridSize="10" guides="1" tooltips="1" connect="1" arrows="1" fold="1" page="1" pageScale="1" pageWidth="827" pageHeight="1169" math="0" shadow="0">
      <root>
        <mxCell id="0" />
        <mxCell id="1" parent="0" />
        <mxCell id="TMxhiazHu43cB9fUqsHN-90" style="edgeStyle=orthogonalEdgeStyle;rounded=0;orthogonalLoop=1;jettySize=auto;html=1;fontSize=10;endArrow=none;endFill=0;startArrow=none;" edge="1" parent="1" source="TMxhiazHu43cB9fUqsHN-49" target="TMxhiazHu43cB9fUqsHN-46">
          <mxGeometry relative="1" as="geometry" />
        </mxCell>
        <mxCell id="TMxhiazHu43cB9fUqsHN-160" style="edgeStyle=orthogonalEdgeStyle;rounded=0;orthogonalLoop=1;jettySize=auto;html=1;fontSize=10;endArrow=none;endFill=0;" edge="1" parent="1" source="TMxhiazHu43cB9fUqsHN-1">
          <mxGeometry relative="1" as="geometry">
            <mxPoint x="-56" y="515" as="targetPoint" />
            <Array as="points">
              <mxPoint x="-110" y="515" />
              <mxPoint x="-56" y="515" />
            </Array>
          </mxGeometry>
        </mxCell>
        <mxCell id="TMxhiazHu43cB9fUqsHN-161" style="edgeStyle=orthogonalEdgeStyle;rounded=0;orthogonalLoop=1;jettySize=auto;html=1;fontSize=10;endArrow=none;endFill=0;startArrow=none;" edge="1" parent="1" source="TMxhiazHu43cB9fUqsHN-163" target="TMxhiazHu43cB9fUqsHN-162">
          <mxGeometry relative="1" as="geometry">
            <mxPoint x="-110.00000000000023" y="760" as="targetPoint" />
          </mxGeometry>
        </mxCell>
        <mxCell id="TMxhiazHu43cB9fUqsHN-1" value="Cliente" style="rounded=0;whiteSpace=wrap;html=1;spacing=2;shadow=0;sketch=0;" vertex="1" parent="1">
          <mxGeometry x="-170" y="430" width="120" height="60" as="geometry" />
        </mxCell>
        <mxCell id="TMxhiazHu43cB9fUqsHN-56" style="edgeStyle=orthogonalEdgeStyle;rounded=0;orthogonalLoop=1;jettySize=auto;html=1;entryX=0.083;entryY=0;entryDx=0;entryDy=0;entryPerimeter=0;fontSize=10;endArrow=none;endFill=0;" edge="1" parent="1" source="TMxhiazHu43cB9fUqsHN-3" target="TMxhiazHu43cB9fUqsHN-1">
          <mxGeometry relative="1" as="geometry" />
        </mxCell>
        <mxCell id="TMxhiazHu43cB9fUqsHN-3" value="" style="ellipse;whiteSpace=wrap;html=1;aspect=fixed;fillColor=#000000;" vertex="1" parent="1">
          <mxGeometry x="-170" y="390" width="20" height="20" as="geometry" />
        </mxCell>
        <mxCell id="TMxhiazHu43cB9fUqsHN-6" value="Id" style="text;html=1;align=center;verticalAlign=middle;resizable=0;points=[];autosize=1;strokeColor=none;fillColor=none;fontSize=10;" vertex="1" parent="1">
          <mxGeometry x="-170" y="370" width="20" height="20" as="geometry" />
        </mxCell>
        <mxCell id="TMxhiazHu43cB9fUqsHN-25" style="edgeStyle=orthogonalEdgeStyle;rounded=0;orthogonalLoop=1;jettySize=auto;html=1;entryX=0.5;entryY=0;entryDx=0;entryDy=0;fontSize=10;endArrow=none;endFill=0;" edge="1" parent="1" source="TMxhiazHu43cB9fUqsHN-10" target="TMxhiazHu43cB9fUqsHN-1">
          <mxGeometry relative="1" as="geometry" />
        </mxCell>
        <mxCell id="TMxhiazHu43cB9fUqsHN-10" value="" style="ellipse;whiteSpace=wrap;html=1;aspect=fixed;" vertex="1" parent="1">
          <mxGeometry x="-120" y="390" width="20" height="20" as="geometry" />
        </mxCell>
        <mxCell id="TMxhiazHu43cB9fUqsHN-12" value="Nome" style="text;html=1;align=center;verticalAlign=middle;resizable=0;points=[];autosize=1;strokeColor=none;fillColor=none;fontSize=10;" vertex="1" parent="1">
          <mxGeometry x="-130" y="370" width="40" height="20" as="geometry" />
        </mxCell>
        <mxCell id="TMxhiazHu43cB9fUqsHN-26" style="edgeStyle=orthogonalEdgeStyle;rounded=0;orthogonalLoop=1;jettySize=auto;html=1;entryX=0.917;entryY=0;entryDx=0;entryDy=0;entryPerimeter=0;fontSize=10;endArrow=none;endFill=0;" edge="1" parent="1" source="TMxhiazHu43cB9fUqsHN-14" target="TMxhiazHu43cB9fUqsHN-1">
          <mxGeometry relative="1" as="geometry" />
        </mxCell>
        <mxCell id="TMxhiazHu43cB9fUqsHN-14" value="" style="ellipse;whiteSpace=wrap;html=1;aspect=fixed;" vertex="1" parent="1">
          <mxGeometry x="-70" y="390" width="20" height="20" as="geometry" />
        </mxCell>
        <mxCell id="TMxhiazHu43cB9fUqsHN-21" value="Telefone" style="text;html=1;align=center;verticalAlign=middle;resizable=0;points=[];autosize=1;strokeColor=none;fillColor=none;fontSize=10;" vertex="1" parent="1">
          <mxGeometry x="-85" y="370" width="50" height="20" as="geometry" />
        </mxCell>
        <mxCell id="TMxhiazHu43cB9fUqsHN-92" style="edgeStyle=orthogonalEdgeStyle;rounded=0;orthogonalLoop=1;jettySize=auto;html=1;fontSize=10;endArrow=none;endFill=0;startArrow=none;" edge="1" parent="1" source="TMxhiazHu43cB9fUqsHN-52" target="TMxhiazHu43cB9fUqsHN-46">
          <mxGeometry relative="1" as="geometry" />
        </mxCell>
        <mxCell id="TMxhiazHu43cB9fUqsHN-23" value="Endereco" style="rounded=0;whiteSpace=wrap;html=1;shadow=0;sketch=0;fontSize=10;" vertex="1" parent="1">
          <mxGeometry x="10" y="610" width="120" height="60" as="geometry" />
        </mxCell>
        <mxCell id="TMxhiazHu43cB9fUqsHN-43" style="edgeStyle=orthogonalEdgeStyle;rounded=0;orthogonalLoop=1;jettySize=auto;html=1;entryX=0.083;entryY=1;entryDx=0;entryDy=0;entryPerimeter=0;fontSize=10;endArrow=none;endFill=0;" edge="1" parent="1" source="TMxhiazHu43cB9fUqsHN-27" target="TMxhiazHu43cB9fUqsHN-23">
          <mxGeometry relative="1" as="geometry" />
        </mxCell>
        <mxCell id="TMxhiazHu43cB9fUqsHN-27" value="" style="ellipse;whiteSpace=wrap;html=1;aspect=fixed;fillColor=#000000;" vertex="1" parent="1">
          <mxGeometry x="10" y="690" width="20" height="20" as="geometry" />
        </mxCell>
        <mxCell id="TMxhiazHu43cB9fUqsHN-44" style="edgeStyle=orthogonalEdgeStyle;rounded=0;orthogonalLoop=1;jettySize=auto;html=1;entryX=0.5;entryY=1;entryDx=0;entryDy=0;fontSize=10;endArrow=none;endFill=0;" edge="1" parent="1" source="TMxhiazHu43cB9fUqsHN-28" target="TMxhiazHu43cB9fUqsHN-23">
          <mxGeometry relative="1" as="geometry" />
        </mxCell>
        <mxCell id="TMxhiazHu43cB9fUqsHN-28" value="" style="ellipse;whiteSpace=wrap;html=1;aspect=fixed;" vertex="1" parent="1">
          <mxGeometry x="60" y="690" width="20" height="20" as="geometry" />
        </mxCell>
        <mxCell id="TMxhiazHu43cB9fUqsHN-45" style="edgeStyle=orthogonalEdgeStyle;rounded=0;orthogonalLoop=1;jettySize=auto;html=1;entryX=0.917;entryY=1;entryDx=0;entryDy=0;entryPerimeter=0;fontSize=10;endArrow=none;endFill=0;" edge="1" parent="1" source="TMxhiazHu43cB9fUqsHN-29" target="TMxhiazHu43cB9fUqsHN-23">
          <mxGeometry relative="1" as="geometry" />
        </mxCell>
        <mxCell id="TMxhiazHu43cB9fUqsHN-29" value="" style="ellipse;whiteSpace=wrap;html=1;aspect=fixed;" vertex="1" parent="1">
          <mxGeometry x="110" y="690" width="20" height="20" as="geometry" />
        </mxCell>
        <mxCell id="TMxhiazHu43cB9fUqsHN-38" value="Id" style="text;html=1;align=center;verticalAlign=middle;resizable=0;points=[];autosize=1;strokeColor=none;fillColor=none;fontSize=10;" vertex="1" parent="1">
          <mxGeometry x="10" y="710" width="20" height="20" as="geometry" />
        </mxCell>
        <mxCell id="TMxhiazHu43cB9fUqsHN-39" value="Rua" style="text;html=1;align=center;verticalAlign=middle;resizable=0;points=[];autosize=1;strokeColor=none;fillColor=none;fontSize=10;" vertex="1" parent="1">
          <mxGeometry x="55" y="710" width="30" height="20" as="geometry" />
        </mxCell>
        <mxCell id="TMxhiazHu43cB9fUqsHN-40" value="Numero" style="text;html=1;align=center;verticalAlign=middle;resizable=0;points=[];autosize=1;strokeColor=none;fillColor=none;fontSize=10;" vertex="1" parent="1">
          <mxGeometry x="95" y="710" width="50" height="20" as="geometry" />
        </mxCell>
        <mxCell id="TMxhiazHu43cB9fUqsHN-46" value="Tem" style="rhombus;whiteSpace=wrap;html=1;rounded=0;shadow=0;sketch=0;fontSize=10;" vertex="1" parent="1">
          <mxGeometry x="32.5" y="490" width="75" height="50" as="geometry" />
        </mxCell>
        <mxCell id="TMxhiazHu43cB9fUqsHN-70" style="edgeStyle=orthogonalEdgeStyle;rounded=0;orthogonalLoop=1;jettySize=auto;html=1;entryX=0;entryY=0.25;entryDx=0;entryDy=0;fontSize=10;endArrow=none;endFill=0;" edge="1" parent="1" source="TMxhiazHu43cB9fUqsHN-59" target="TMxhiazHu43cB9fUqsHN-61">
          <mxGeometry relative="1" as="geometry" />
        </mxCell>
        <mxCell id="TMxhiazHu43cB9fUqsHN-59" value="Fisico" style="whiteSpace=wrap;html=1;rounded=0;shadow=0;sketch=0;fontSize=10;fillColor=#FFFFFF;" vertex="1" parent="1">
          <mxGeometry x="-430" y="390" width="120" height="60" as="geometry" />
        </mxCell>
        <mxCell id="TMxhiazHu43cB9fUqsHN-63" style="edgeStyle=orthogonalEdgeStyle;rounded=0;orthogonalLoop=1;jettySize=auto;html=1;fontSize=10;endArrow=none;endFill=0;" edge="1" parent="1" source="TMxhiazHu43cB9fUqsHN-61" target="TMxhiazHu43cB9fUqsHN-1">
          <mxGeometry relative="1" as="geometry" />
        </mxCell>
        <mxCell id="TMxhiazHu43cB9fUqsHN-61" value="Ã‰" style="triangle;whiteSpace=wrap;html=1;rounded=0;shadow=0;sketch=0;fontSize=10;fillColor=#FFFFFF;" vertex="1" parent="1">
          <mxGeometry x="-270" y="420" width="60" height="80" as="geometry" />
        </mxCell>
        <mxCell id="TMxhiazHu43cB9fUqsHN-64" value="T" style="text;html=1;align=center;verticalAlign=middle;resizable=0;points=[];autosize=1;strokeColor=none;fillColor=none;fontSize=10;" vertex="1" parent="1">
          <mxGeometry x="-200" y="440" width="20" height="20" as="geometry" />
        </mxCell>
        <mxCell id="TMxhiazHu43cB9fUqsHN-68" style="edgeStyle=orthogonalEdgeStyle;rounded=0;orthogonalLoop=1;jettySize=auto;html=1;entryX=0;entryY=0.75;entryDx=0;entryDy=0;fontSize=10;endArrow=none;endFill=0;" edge="1" parent="1" source="TMxhiazHu43cB9fUqsHN-66" target="TMxhiazHu43cB9fUqsHN-61">
          <mxGeometry relative="1" as="geometry" />
        </mxCell>
        <mxCell id="TMxhiazHu43cB9fUqsHN-66" value="Juridico" style="rounded=0;whiteSpace=wrap;html=1;shadow=0;sketch=0;fontSize=10;fillColor=#FFFFFF;" vertex="1" parent="1">
          <mxGeometry x="-430" y="470" width="120" height="60" as="geometry" />
        </mxCell>
        <mxCell id="TMxhiazHu43cB9fUqsHN-73" style="edgeStyle=orthogonalEdgeStyle;rounded=0;orthogonalLoop=1;jettySize=auto;html=1;entryX=0.083;entryY=0;entryDx=0;entryDy=0;entryPerimeter=0;fontSize=10;endArrow=none;endFill=0;" edge="1" parent="1" source="TMxhiazHu43cB9fUqsHN-71" target="TMxhiazHu43cB9fUqsHN-59">
          <mxGeometry relative="1" as="geometry" />
        </mxCell>
        <mxCell id="TMxhiazHu43cB9fUqsHN-71" value="" style="ellipse;whiteSpace=wrap;html=1;aspect=fixed;" vertex="1" parent="1">
          <mxGeometry x="-430" y="340" width="20" height="20" as="geometry" />
        </mxCell>
        <mxCell id="TMxhiazHu43cB9fUqsHN-75" style="edgeStyle=orthogonalEdgeStyle;rounded=0;orthogonalLoop=1;jettySize=auto;html=1;entryX=0.917;entryY=0;entryDx=0;entryDy=0;entryPerimeter=0;fontSize=10;endArrow=none;endFill=0;" edge="1" parent="1" source="TMxhiazHu43cB9fUqsHN-74" target="TMxhiazHu43cB9fUqsHN-59">
          <mxGeometry relative="1" as="geometry" />
        </mxCell>
        <mxCell id="TMxhiazHu43cB9fUqsHN-74" value="" style="ellipse;whiteSpace=wrap;html=1;aspect=fixed;" vertex="1" parent="1">
          <mxGeometry x="-330" y="340" width="20" height="20" as="geometry" />
        </mxCell>
        <mxCell id="TMxhiazHu43cB9fUqsHN-76" value="CPF" style="text;html=1;align=center;verticalAlign=middle;resizable=0;points=[];autosize=1;strokeColor=none;fillColor=none;fontSize=10;" vertex="1" parent="1">
          <mxGeometry x="-440" y="320" width="40" height="20" as="geometry" />
        </mxCell>
        <mxCell id="TMxhiazHu43cB9fUqsHN-78" style="edgeStyle=orthogonalEdgeStyle;rounded=0;orthogonalLoop=1;jettySize=auto;html=1;fontSize=10;endArrow=none;endFill=0;" edge="1" parent="1" source="TMxhiazHu43cB9fUqsHN-77" target="TMxhiazHu43cB9fUqsHN-59">
          <mxGeometry relative="1" as="geometry" />
        </mxCell>
        <mxCell id="TMxhiazHu43cB9fUqsHN-77" value="" style="ellipse;whiteSpace=wrap;html=1;aspect=fixed;" vertex="1" parent="1">
          <mxGeometry x="-380" y="340" width="20" height="20" as="geometry" />
        </mxCell>
        <mxCell id="TMxhiazHu43cB9fUqsHN-79" value="RG" style="text;html=1;align=center;verticalAlign=middle;resizable=0;points=[];autosize=1;strokeColor=none;fillColor=none;fontSize=10;" vertex="1" parent="1">
          <mxGeometry x="-385" y="320" width="30" height="20" as="geometry" />
        </mxCell>
        <mxCell id="TMxhiazHu43cB9fUqsHN-80" value="Sexo" style="text;html=1;align=center;verticalAlign=middle;resizable=0;points=[];autosize=1;strokeColor=none;fillColor=none;fontSize=10;" vertex="1" parent="1">
          <mxGeometry x="-340" y="320" width="40" height="20" as="geometry" />
        </mxCell>
        <mxCell id="TMxhiazHu43cB9fUqsHN-82" style="edgeStyle=orthogonalEdgeStyle;rounded=0;orthogonalLoop=1;jettySize=auto;html=1;entryX=0.083;entryY=1;entryDx=0;entryDy=0;entryPerimeter=0;fontSize=10;endArrow=none;endFill=0;" edge="1" parent="1" source="TMxhiazHu43cB9fUqsHN-81" target="TMxhiazHu43cB9fUqsHN-66">
          <mxGeometry relative="1" as="geometry" />
        </mxCell>
        <mxCell id="TMxhiazHu43cB9fUqsHN-81" value="" style="ellipse;whiteSpace=wrap;html=1;aspect=fixed;" vertex="1" parent="1">
          <mxGeometry x="-430" y="560" width="20" height="20" as="geometry" />
        </mxCell>
        <mxCell id="TMxhiazHu43cB9fUqsHN-84" style="edgeStyle=orthogonalEdgeStyle;rounded=0;orthogonalLoop=1;jettySize=auto;html=1;entryX=0.917;entryY=1;entryDx=0;entryDy=0;entryPerimeter=0;fontSize=10;endArrow=none;endFill=0;" edge="1" parent="1" source="TMxhiazHu43cB9fUqsHN-83" target="TMxhiazHu43cB9fUqsHN-66">
          <mxGeometry relative="1" as="geometry" />
        </mxCell>
        <mxCell id="TMxhiazHu43cB9fUqsHN-83" value="" style="ellipse;whiteSpace=wrap;html=1;aspect=fixed;" vertex="1" parent="1">
          <mxGeometry x="-330" y="560" width="20" height="20" as="geometry" />
        </mxCell>
        <mxCell id="TMxhiazHu43cB9fUqsHN-86" style="edgeStyle=orthogonalEdgeStyle;rounded=0;orthogonalLoop=1;jettySize=auto;html=1;fontSize=10;endArrow=none;endFill=0;" edge="1" parent="1" source="TMxhiazHu43cB9fUqsHN-85" target="TMxhiazHu43cB9fUqsHN-66">
          <mxGeometry relative="1" as="geometry" />
        </mxCell>
        <mxCell id="TMxhiazHu43cB9fUqsHN-85" value="" style="ellipse;whiteSpace=wrap;html=1;aspect=fixed;" vertex="1" parent="1">
          <mxGeometry x="-380" y="560" width="20" height="20" as="geometry" />
        </mxCell>
        <mxCell id="TMxhiazHu43cB9fUqsHN-87" value="CNPJ" style="text;html=1;align=center;verticalAlign=middle;resizable=0;points=[];autosize=1;strokeColor=none;fillColor=none;fontSize=10;" vertex="1" parent="1">
          <mxGeometry x="-440" y="580" width="40" height="20" as="geometry" />
        </mxCell>
        <mxCell id="TMxhiazHu43cB9fUqsHN-88" value="IE" style="text;html=1;align=center;verticalAlign=middle;resizable=0;points=[];autosize=1;strokeColor=none;fillColor=none;fontSize=10;" vertex="1" parent="1">
          <mxGeometry x="-380" y="580" width="20" height="20" as="geometry" />
        </mxCell>
        <mxCell id="TMxhiazHu43cB9fUqsHN-89" value="TipoEmpresa" style="text;html=1;align=center;verticalAlign=middle;resizable=0;points=[];autosize=1;strokeColor=none;fillColor=none;fontSize=10;" vertex="1" parent="1">
          <mxGeometry x="-355" y="580" width="70" height="20" as="geometry" />
        </mxCell>
        <mxCell id="TMxhiazHu43cB9fUqsHN-49" value="n" style="text;html=1;align=center;verticalAlign=middle;resizable=0;points=[];autosize=1;strokeColor=none;fillColor=none;fontSize=10;" vertex="1" parent="1">
          <mxGeometry x="-55" y="505" width="20" height="20" as="geometry" />
        </mxCell>
        <mxCell id="TMxhiazHu43cB9fUqsHN-52" value="1" style="text;html=1;align=center;verticalAlign=middle;resizable=0;points=[];autosize=1;strokeColor=none;fillColor=none;fontSize=10;" vertex="1" parent="1">
          <mxGeometry x="60" y="565" width="20" height="20" as="geometry" />
        </mxCell>
        <mxCell id="TMxhiazHu43cB9fUqsHN-93" value="" style="edgeStyle=orthogonalEdgeStyle;rounded=0;orthogonalLoop=1;jettySize=auto;html=1;fontSize=10;endArrow=none;endFill=0;" edge="1" parent="1" source="TMxhiazHu43cB9fUqsHN-23" target="TMxhiazHu43cB9fUqsHN-52">
          <mxGeometry relative="1" as="geometry">
            <mxPoint x="9.999999999999773" y="640" as="sourcePoint" />
            <mxPoint x="-70.00000000000023" y="640" as="targetPoint" />
          </mxGeometry>
        </mxCell>
        <mxCell id="TMxhiazHu43cB9fUqsHN-132" style="edgeStyle=orthogonalEdgeStyle;rounded=0;orthogonalLoop=1;jettySize=auto;html=1;fontSize=10;endArrow=none;endFill=0;entryX=0.5;entryY=0;entryDx=0;entryDy=0;startArrow=none;" edge="1" parent="1" source="TMxhiazHu43cB9fUqsHN-134" target="TMxhiazHu43cB9fUqsHN-129">
          <mxGeometry relative="1" as="geometry">
            <mxPoint x="410" y="460" as="targetPoint" />
          </mxGeometry>
        </mxCell>
        <mxCell id="TMxhiazHu43cB9fUqsHN-94" value="Fornecedor" style="whiteSpace=wrap;html=1;rounded=0;shadow=0;sketch=0;fontSize=10;fillColor=#FFFFFF;" vertex="1" parent="1">
          <mxGeometry x="180" y="430" width="120" height="60" as="geometry" />
        </mxCell>
        <mxCell id="TMxhiazHu43cB9fUqsHN-96" style="edgeStyle=orthogonalEdgeStyle;rounded=0;orthogonalLoop=1;jettySize=auto;html=1;entryX=0.083;entryY=0;entryDx=0;entryDy=0;entryPerimeter=0;fontSize=10;endArrow=none;endFill=0;exitX=0.5;exitY=1;exitDx=0;exitDy=0;" edge="1" parent="1" source="TMxhiazHu43cB9fUqsHN-106" target="TMxhiazHu43cB9fUqsHN-94">
          <mxGeometry relative="1" as="geometry">
            <mxPoint x="190" y="410" as="sourcePoint" />
          </mxGeometry>
        </mxCell>
        <mxCell id="TMxhiazHu43cB9fUqsHN-101" style="edgeStyle=orthogonalEdgeStyle;rounded=0;orthogonalLoop=1;jettySize=auto;html=1;entryX=0.333;entryY=0;entryDx=0;entryDy=0;entryPerimeter=0;fontSize=10;endArrow=none;endFill=0;" edge="1" parent="1" source="TMxhiazHu43cB9fUqsHN-97" target="TMxhiazHu43cB9fUqsHN-94">
          <mxGeometry relative="1" as="geometry" />
        </mxCell>
        <mxCell id="TMxhiazHu43cB9fUqsHN-97" value="" style="ellipse;whiteSpace=wrap;html=1;aspect=fixed;" vertex="1" parent="1">
          <mxGeometry x="230" y="390" width="20" height="20" as="geometry" />
        </mxCell>
        <mxCell id="TMxhiazHu43cB9fUqsHN-103" style="edgeStyle=orthogonalEdgeStyle;rounded=0;orthogonalLoop=1;jettySize=auto;html=1;entryX=0.917;entryY=0;entryDx=0;entryDy=0;entryPerimeter=0;fontSize=10;endArrow=none;endFill=0;" edge="1" parent="1" source="TMxhiazHu43cB9fUqsHN-102" target="TMxhiazHu43cB9fUqsHN-94">
          <mxGeometry relative="1" as="geometry" />
        </mxCell>
        <mxCell id="TMxhiazHu43cB9fUqsHN-102" value="" style="ellipse;whiteSpace=wrap;html=1;aspect=fixed;" vertex="1" parent="1">
          <mxGeometry x="280" y="390" width="20" height="20" as="geometry" />
        </mxCell>
        <mxCell id="TMxhiazHu43cB9fUqsHN-106" value="" style="ellipse;whiteSpace=wrap;html=1;aspect=fixed;fillColor=#000000;" vertex="1" parent="1">
          <mxGeometry x="180" y="390" width="20" height="20" as="geometry" />
        </mxCell>
        <mxCell id="TMxhiazHu43cB9fUqsHN-107" value="Id" style="text;html=1;align=center;verticalAlign=middle;resizable=0;points=[];autosize=1;strokeColor=none;fillColor=none;fontSize=10;" vertex="1" parent="1">
          <mxGeometry x="180" y="370" width="20" height="20" as="geometry" />
        </mxCell>
        <mxCell id="TMxhiazHu43cB9fUqsHN-108" value="CNPJ" style="text;html=1;align=center;verticalAlign=middle;resizable=0;points=[];autosize=1;strokeColor=none;fillColor=none;fontSize=10;" vertex="1" parent="1">
          <mxGeometry x="220" y="370" width="40" height="20" as="geometry" />
        </mxCell>
        <mxCell id="TMxhiazHu43cB9fUqsHN-109" value="Nome" style="text;html=1;align=center;verticalAlign=middle;resizable=0;points=[];autosize=1;strokeColor=none;fillColor=none;fontSize=10;" vertex="1" parent="1">
          <mxGeometry x="270" y="370" width="40" height="20" as="geometry" />
        </mxCell>
        <mxCell id="TMxhiazHu43cB9fUqsHN-111" style="edgeStyle=orthogonalEdgeStyle;rounded=0;orthogonalLoop=1;jettySize=auto;html=1;fontSize=10;endArrow=none;endFill=0;startArrow=none;" edge="1" parent="1" source="TMxhiazHu43cB9fUqsHN-115" target="TMxhiazHu43cB9fUqsHN-23">
          <mxGeometry relative="1" as="geometry" />
        </mxCell>
        <mxCell id="TMxhiazHu43cB9fUqsHN-112" style="edgeStyle=orthogonalEdgeStyle;rounded=0;orthogonalLoop=1;jettySize=auto;html=1;fontSize=10;endArrow=none;endFill=0;startArrow=none;" edge="1" parent="1" source="TMxhiazHu43cB9fUqsHN-113" target="TMxhiazHu43cB9fUqsHN-94">
          <mxGeometry relative="1" as="geometry" />
        </mxCell>
        <mxCell id="TMxhiazHu43cB9fUqsHN-110" value="Tem" style="rhombus;whiteSpace=wrap;html=1;rounded=0;shadow=0;sketch=0;fontSize=10;" vertex="1" parent="1">
          <mxGeometry x="202.5" y="615" width="75" height="50" as="geometry" />
        </mxCell>
        <mxCell id="TMxhiazHu43cB9fUqsHN-113" value="n" style="text;html=1;align=center;verticalAlign=middle;resizable=0;points=[];autosize=1;strokeColor=none;fillColor=none;fontSize=10;" vertex="1" parent="1">
          <mxGeometry x="230" y="540" width="20" height="20" as="geometry" />
        </mxCell>
        <mxCell id="TMxhiazHu43cB9fUqsHN-114" value="" style="edgeStyle=orthogonalEdgeStyle;rounded=0;orthogonalLoop=1;jettySize=auto;html=1;fontSize=10;endArrow=none;endFill=0;" edge="1" parent="1" source="TMxhiazHu43cB9fUqsHN-110" target="TMxhiazHu43cB9fUqsHN-113">
          <mxGeometry relative="1" as="geometry">
            <mxPoint x="240" y="615.0000000000001" as="sourcePoint" />
            <mxPoint x="240" y="490" as="targetPoint" />
          </mxGeometry>
        </mxCell>
        <mxCell id="TMxhiazHu43cB9fUqsHN-115" value="1" style="text;html=1;align=center;verticalAlign=middle;resizable=0;points=[];autosize=1;strokeColor=none;fillColor=none;fontSize=10;" vertex="1" parent="1">
          <mxGeometry x="160" y="630" width="20" height="20" as="geometry" />
        </mxCell>
        <mxCell id="TMxhiazHu43cB9fUqsHN-116" value="" style="edgeStyle=orthogonalEdgeStyle;rounded=0;orthogonalLoop=1;jettySize=auto;html=1;fontSize=10;endArrow=none;endFill=0;" edge="1" parent="1" source="TMxhiazHu43cB9fUqsHN-110" target="TMxhiazHu43cB9fUqsHN-115">
          <mxGeometry relative="1" as="geometry">
            <mxPoint x="202.5" y="640" as="sourcePoint" />
            <mxPoint x="130" y="640" as="targetPoint" />
          </mxGeometry>
        </mxCell>
        <mxCell id="TMxhiazHu43cB9fUqsHN-150" style="edgeStyle=orthogonalEdgeStyle;rounded=0;orthogonalLoop=1;jettySize=auto;html=1;fontSize=10;endArrow=none;endFill=0;" edge="1" parent="1" source="TMxhiazHu43cB9fUqsHN-117" target="TMxhiazHu43cB9fUqsHN-147">
          <mxGeometry relative="1" as="geometry" />
        </mxCell>
        <mxCell id="TMxhiazHu43cB9fUqsHN-217" style="edgeStyle=orthogonalEdgeStyle;rounded=0;orthogonalLoop=1;jettySize=auto;html=1;fontSize=10;endArrow=none;endFill=0;" edge="1" parent="1" source="TMxhiazHu43cB9fUqsHN-117" target="TMxhiazHu43cB9fUqsHN-219">
          <mxGeometry relative="1" as="geometry">
            <mxPoint x="-360" y="1140" as="targetPoint" />
            <Array as="points">
              <mxPoint x="340" y="640" />
              <mxPoint x="340" y="1140" />
            </Array>
          </mxGeometry>
        </mxCell>
        <mxCell id="TMxhiazHu43cB9fUqsHN-117" value="Produto" style="whiteSpace=wrap;html=1;rounded=0;shadow=0;sketch=0;fontSize=10;fillColor=#FFFFFF;" vertex="1" parent="1">
          <mxGeometry x="360" y="610" width="120" height="60" as="geometry" />
        </mxCell>
        <mxCell id="TMxhiazHu43cB9fUqsHN-121" style="edgeStyle=orthogonalEdgeStyle;rounded=0;orthogonalLoop=1;jettySize=auto;html=1;entryX=0.083;entryY=1;entryDx=0;entryDy=0;entryPerimeter=0;fontSize=10;endArrow=none;endFill=0;" edge="1" parent="1" source="TMxhiazHu43cB9fUqsHN-118" target="TMxhiazHu43cB9fUqsHN-117">
          <mxGeometry relative="1" as="geometry" />
        </mxCell>
        <mxCell id="TMxhiazHu43cB9fUqsHN-118" value="" style="ellipse;whiteSpace=wrap;html=1;aspect=fixed;fillColor=#000000;" vertex="1" parent="1">
          <mxGeometry x="360" y="700" width="20" height="20" as="geometry" />
        </mxCell>
        <mxCell id="TMxhiazHu43cB9fUqsHN-122" style="edgeStyle=orthogonalEdgeStyle;rounded=0;orthogonalLoop=1;jettySize=auto;html=1;entryX=0.5;entryY=1;entryDx=0;entryDy=0;fontSize=10;endArrow=none;endFill=0;" edge="1" parent="1" source="TMxhiazHu43cB9fUqsHN-119" target="TMxhiazHu43cB9fUqsHN-117">
          <mxGeometry relative="1" as="geometry" />
        </mxCell>
        <mxCell id="TMxhiazHu43cB9fUqsHN-119" value="" style="ellipse;whiteSpace=wrap;html=1;aspect=fixed;" vertex="1" parent="1">
          <mxGeometry x="410" y="700" width="20" height="20" as="geometry" />
        </mxCell>
        <mxCell id="TMxhiazHu43cB9fUqsHN-124" style="edgeStyle=orthogonalEdgeStyle;rounded=0;orthogonalLoop=1;jettySize=auto;html=1;entryX=0.917;entryY=1;entryDx=0;entryDy=0;entryPerimeter=0;fontSize=10;endArrow=none;endFill=0;" edge="1" parent="1" source="TMxhiazHu43cB9fUqsHN-123" target="TMxhiazHu43cB9fUqsHN-117">
          <mxGeometry relative="1" as="geometry" />
        </mxCell>
        <mxCell id="TMxhiazHu43cB9fUqsHN-123" value="" style="ellipse;whiteSpace=wrap;html=1;aspect=fixed;" vertex="1" parent="1">
          <mxGeometry x="460" y="700" width="20" height="20" as="geometry" />
        </mxCell>
        <mxCell id="TMxhiazHu43cB9fUqsHN-125" value="Id" style="text;html=1;align=center;verticalAlign=middle;resizable=0;points=[];autosize=1;strokeColor=none;fillColor=none;fontSize=10;" vertex="1" parent="1">
          <mxGeometry x="360" y="720" width="20" height="20" as="geometry" />
        </mxCell>
        <mxCell id="TMxhiazHu43cB9fUqsHN-126" value="Estoque" style="text;html=1;align=center;verticalAlign=middle;resizable=0;points=[];autosize=1;strokeColor=none;fillColor=none;fontSize=10;" vertex="1" parent="1">
          <mxGeometry x="395" y="720" width="50" height="20" as="geometry" />
        </mxCell>
        <mxCell id="TMxhiazHu43cB9fUqsHN-127" value="Validade" style="text;html=1;align=center;verticalAlign=middle;resizable=0;points=[];autosize=1;strokeColor=none;fillColor=none;fontSize=10;" vertex="1" parent="1">
          <mxGeometry x="445" y="720" width="50" height="20" as="geometry" />
        </mxCell>
        <mxCell id="TMxhiazHu43cB9fUqsHN-133" style="edgeStyle=orthogonalEdgeStyle;rounded=0;orthogonalLoop=1;jettySize=auto;html=1;fontSize=10;endArrow=none;endFill=0;startArrow=none;" edge="1" parent="1" source="TMxhiazHu43cB9fUqsHN-136" target="TMxhiazHu43cB9fUqsHN-117">
          <mxGeometry relative="1" as="geometry" />
        </mxCell>
        <mxCell id="TMxhiazHu43cB9fUqsHN-129" value="Ã‰ fornecido por" style="rhombus;whiteSpace=wrap;html=1;rounded=0;shadow=0;sketch=0;fontSize=10;" vertex="1" parent="1">
          <mxGeometry x="379" y="490" width="81" height="50" as="geometry" />
        </mxCell>
        <mxCell id="TMxhiazHu43cB9fUqsHN-134" value="1" style="text;html=1;align=center;verticalAlign=middle;resizable=0;points=[];autosize=1;strokeColor=none;fillColor=none;fontSize=10;" vertex="1" parent="1">
          <mxGeometry x="350" y="450" width="20" height="20" as="geometry" />
        </mxCell>
        <mxCell id="TMxhiazHu43cB9fUqsHN-135" value="" style="edgeStyle=orthogonalEdgeStyle;rounded=0;orthogonalLoop=1;jettySize=auto;html=1;fontSize=10;endArrow=none;endFill=0;entryX=0.05;entryY=0.53;entryDx=0;entryDy=0;entryPerimeter=0;" edge="1" parent="1" source="TMxhiazHu43cB9fUqsHN-94" target="TMxhiazHu43cB9fUqsHN-134">
          <mxGeometry relative="1" as="geometry">
            <mxPoint x="419.5" y="500" as="targetPoint" />
            <mxPoint x="300" y="460" as="sourcePoint" />
          </mxGeometry>
        </mxCell>
        <mxCell id="TMxhiazHu43cB9fUqsHN-136" value="n" style="text;html=1;align=center;verticalAlign=middle;resizable=0;points=[];autosize=1;strokeColor=none;fillColor=none;fontSize=10;" vertex="1" parent="1">
          <mxGeometry x="409.5" y="565" width="20" height="20" as="geometry" />
        </mxCell>
        <mxCell id="TMxhiazHu43cB9fUqsHN-137" value="" style="edgeStyle=orthogonalEdgeStyle;rounded=0;orthogonalLoop=1;jettySize=auto;html=1;fontSize=10;endArrow=none;endFill=0;" edge="1" parent="1" source="TMxhiazHu43cB9fUqsHN-129" target="TMxhiazHu43cB9fUqsHN-136">
          <mxGeometry relative="1" as="geometry">
            <mxPoint x="419.52" y="549.9876543209875" as="sourcePoint" />
            <mxPoint x="420" y="610" as="targetPoint" />
          </mxGeometry>
        </mxCell>
        <mxCell id="TMxhiazHu43cB9fUqsHN-195" style="edgeStyle=orthogonalEdgeStyle;rounded=0;orthogonalLoop=1;jettySize=auto;html=1;fontSize=10;endArrow=none;endFill=0;" edge="1" parent="1" source="TMxhiazHu43cB9fUqsHN-138" target="TMxhiazHu43cB9fUqsHN-193">
          <mxGeometry relative="1" as="geometry" />
        </mxCell>
        <mxCell id="TMxhiazHu43cB9fUqsHN-138" value="Pedido" style="whiteSpace=wrap;html=1;rounded=0;shadow=0;sketch=0;fontSize=10;fillColor=#FFFFFF;" vertex="1" parent="1">
          <mxGeometry x="145" y="840" width="120" height="60" as="geometry" />
        </mxCell>
        <mxCell id="TMxhiazHu43cB9fUqsHN-144" style="edgeStyle=orthogonalEdgeStyle;rounded=0;orthogonalLoop=1;jettySize=auto;html=1;fontSize=10;endArrow=none;endFill=0;startArrow=none;" edge="1" parent="1" source="TMxhiazHu43cB9fUqsHN-145" target="TMxhiazHu43cB9fUqsHN-138">
          <mxGeometry relative="1" as="geometry" />
        </mxCell>
        <mxCell id="TMxhiazHu43cB9fUqsHN-149" style="edgeStyle=orthogonalEdgeStyle;rounded=0;orthogonalLoop=1;jettySize=auto;html=1;fontSize=10;endArrow=none;endFill=0;" edge="1" parent="1" source="TMxhiazHu43cB9fUqsHN-141" target="TMxhiazHu43cB9fUqsHN-147">
          <mxGeometry relative="1" as="geometry" />
        </mxCell>
        <mxCell id="TMxhiazHu43cB9fUqsHN-141" value="Tem" style="rhombus;whiteSpace=wrap;html=1;rounded=0;shadow=0;sketch=0;fontSize=10;" vertex="1" parent="1">
          <mxGeometry x="382" y="845" width="75" height="50" as="geometry" />
        </mxCell>
        <mxCell id="TMxhiazHu43cB9fUqsHN-145" value="1" style="text;html=1;align=center;verticalAlign=middle;resizable=0;points=[];autosize=1;strokeColor=none;fillColor=none;fontSize=10;" vertex="1" parent="1">
          <mxGeometry x="310" y="860" width="20" height="20" as="geometry" />
        </mxCell>
        <mxCell id="TMxhiazHu43cB9fUqsHN-146" value="" style="edgeStyle=orthogonalEdgeStyle;rounded=0;orthogonalLoop=1;jettySize=auto;html=1;fontSize=10;endArrow=none;endFill=0;" edge="1" parent="1" source="TMxhiazHu43cB9fUqsHN-141" target="TMxhiazHu43cB9fUqsHN-145">
          <mxGeometry relative="1" as="geometry">
            <mxPoint x="382" y="870" as="sourcePoint" />
            <mxPoint x="265" y="870" as="targetPoint" />
          </mxGeometry>
        </mxCell>
        <mxCell id="TMxhiazHu43cB9fUqsHN-147" value="n" style="text;html=1;align=center;verticalAlign=middle;resizable=0;points=[];autosize=1;strokeColor=none;fillColor=none;fontSize=10;" vertex="1" parent="1">
          <mxGeometry x="530" y="750" width="20" height="20" as="geometry" />
        </mxCell>
        <mxCell id="TMxhiazHu43cB9fUqsHN-156" style="edgeStyle=orthogonalEdgeStyle;rounded=0;orthogonalLoop=1;jettySize=auto;html=1;entryX=0.083;entryY=1;entryDx=0;entryDy=0;entryPerimeter=0;fontSize=10;endArrow=none;endFill=0;" edge="1" parent="1" source="TMxhiazHu43cB9fUqsHN-151" target="TMxhiazHu43cB9fUqsHN-138">
          <mxGeometry relative="1" as="geometry" />
        </mxCell>
        <mxCell id="TMxhiazHu43cB9fUqsHN-151" value="" style="ellipse;whiteSpace=wrap;html=1;aspect=fixed;fillColor=#000000;" vertex="1" parent="1">
          <mxGeometry x="145" y="930" width="20" height="20" as="geometry" />
        </mxCell>
        <mxCell id="TMxhiazHu43cB9fUqsHN-155" style="edgeStyle=orthogonalEdgeStyle;rounded=0;orthogonalLoop=1;jettySize=auto;html=1;entryX=0.5;entryY=1;entryDx=0;entryDy=0;fontSize=10;endArrow=none;endFill=0;" edge="1" parent="1" source="TMxhiazHu43cB9fUqsHN-152" target="TMxhiazHu43cB9fUqsHN-138">
          <mxGeometry relative="1" as="geometry" />
        </mxCell>
        <mxCell id="TMxhiazHu43cB9fUqsHN-152" value="" style="ellipse;whiteSpace=wrap;html=1;aspect=fixed;" vertex="1" parent="1">
          <mxGeometry x="195" y="930" width="20" height="20" as="geometry" />
        </mxCell>
        <mxCell id="TMxhiazHu43cB9fUqsHN-154" style="edgeStyle=orthogonalEdgeStyle;rounded=0;orthogonalLoop=1;jettySize=auto;html=1;entryX=0.917;entryY=1;entryDx=0;entryDy=0;entryPerimeter=0;fontSize=10;endArrow=none;endFill=0;" edge="1" parent="1" source="TMxhiazHu43cB9fUqsHN-153" target="TMxhiazHu43cB9fUqsHN-138">
          <mxGeometry relative="1" as="geometry" />
        </mxCell>
        <mxCell id="TMxhiazHu43cB9fUqsHN-153" value="" style="ellipse;whiteSpace=wrap;html=1;aspect=fixed;" vertex="1" parent="1">
          <mxGeometry x="245" y="930" width="20" height="20" as="geometry" />
        </mxCell>
        <mxCell id="TMxhiazHu43cB9fUqsHN-157" value="Id" style="text;html=1;align=center;verticalAlign=middle;resizable=0;points=[];autosize=1;strokeColor=none;fillColor=none;fontSize=10;" vertex="1" parent="1">
          <mxGeometry x="145" y="950" width="20" height="20" as="geometry" />
        </mxCell>
        <mxCell id="TMxhiazHu43cB9fUqsHN-158" value="PrecoTotal" style="text;html=1;align=center;verticalAlign=middle;resizable=0;points=[];autosize=1;strokeColor=none;fillColor=none;fontSize=10;" vertex="1" parent="1">
          <mxGeometry x="175" y="950" width="60" height="20" as="geometry" />
        </mxCell>
        <mxCell id="TMxhiazHu43cB9fUqsHN-159" value="TipoConsumo" style="text;html=1;align=center;verticalAlign=middle;resizable=0;points=[];autosize=1;strokeColor=none;fillColor=none;fontSize=10;" vertex="1" parent="1">
          <mxGeometry x="260" y="930" width="80" height="20" as="geometry" />
        </mxCell>
        <mxCell id="TMxhiazHu43cB9fUqsHN-165" style="edgeStyle=orthogonalEdgeStyle;rounded=0;orthogonalLoop=1;jettySize=auto;html=1;fontSize=10;endArrow=none;endFill=0;startArrow=none;" edge="1" parent="1" source="TMxhiazHu43cB9fUqsHN-166" target="TMxhiazHu43cB9fUqsHN-138">
          <mxGeometry relative="1" as="geometry" />
        </mxCell>
        <mxCell id="TMxhiazHu43cB9fUqsHN-162" value="Tem" style="rhombus;whiteSpace=wrap;html=1;rounded=0;shadow=0;sketch=0;fontSize=10;" vertex="1" parent="1">
          <mxGeometry x="-147.5" y="770" width="75" height="50" as="geometry" />
        </mxCell>
        <mxCell id="TMxhiazHu43cB9fUqsHN-163" value="1" style="text;html=1;align=center;verticalAlign=middle;resizable=0;points=[];autosize=1;strokeColor=none;fillColor=none;fontSize=10;" vertex="1" parent="1">
          <mxGeometry x="-120" y="620" width="20" height="20" as="geometry" />
        </mxCell>
        <mxCell id="TMxhiazHu43cB9fUqsHN-164" value="" style="edgeStyle=orthogonalEdgeStyle;rounded=0;orthogonalLoop=1;jettySize=auto;html=1;fontSize=10;endArrow=none;endFill=0;" edge="1" parent="1" source="TMxhiazHu43cB9fUqsHN-1" target="TMxhiazHu43cB9fUqsHN-163">
          <mxGeometry relative="1" as="geometry">
            <mxPoint x="-110.00000000000023" y="770" as="targetPoint" />
            <mxPoint x="-110.00000000000023" y="490" as="sourcePoint" />
          </mxGeometry>
        </mxCell>
        <mxCell id="TMxhiazHu43cB9fUqsHN-166" value="n" style="text;html=1;align=center;verticalAlign=middle;resizable=0;points=[];autosize=1;strokeColor=none;fillColor=none;fontSize=10;" vertex="1" parent="1">
          <mxGeometry x="60" y="785" width="20" height="20" as="geometry" />
        </mxCell>
        <mxCell id="TMxhiazHu43cB9fUqsHN-167" value="" style="edgeStyle=orthogonalEdgeStyle;rounded=0;orthogonalLoop=1;jettySize=auto;html=1;fontSize=10;endArrow=none;endFill=0;" edge="1" parent="1" source="TMxhiazHu43cB9fUqsHN-162" target="TMxhiazHu43cB9fUqsHN-166">
          <mxGeometry relative="1" as="geometry">
            <mxPoint x="-72.55172413793093" y="795.0344827586207" as="sourcePoint" />
            <mxPoint x="205.00000000000023" y="839.9999999999998" as="targetPoint" />
          </mxGeometry>
        </mxCell>
        <mxCell id="TMxhiazHu43cB9fUqsHN-190" style="edgeStyle=orthogonalEdgeStyle;rounded=0;orthogonalLoop=1;jettySize=auto;html=1;fontSize=10;endArrow=none;endFill=0;startArrow=none;" edge="1" parent="1" source="TMxhiazHu43cB9fUqsHN-191" target="TMxhiazHu43cB9fUqsHN-189">
          <mxGeometry relative="1" as="geometry" />
        </mxCell>
        <mxCell id="TMxhiazHu43cB9fUqsHN-210" style="edgeStyle=orthogonalEdgeStyle;rounded=0;orthogonalLoop=1;jettySize=auto;html=1;fontSize=10;endArrow=none;endFill=0;" edge="1" parent="1" source="TMxhiazHu43cB9fUqsHN-169" target="TMxhiazHu43cB9fUqsHN-208">
          <mxGeometry relative="1" as="geometry" />
        </mxCell>
        <mxCell id="TMxhiazHu43cB9fUqsHN-169" value="Pizza" style="whiteSpace=wrap;html=1;rounded=0;shadow=0;sketch=0;fontSize=10;fillColor=#FFFFFF;" vertex="1" parent="1">
          <mxGeometry x="-280" y="890" width="120" height="60" as="geometry" />
        </mxCell>
        <mxCell id="TMxhiazHu43cB9fUqsHN-177" style="edgeStyle=orthogonalEdgeStyle;rounded=0;orthogonalLoop=1;jettySize=auto;html=1;entryX=0.083;entryY=0;entryDx=0;entryDy=0;entryPerimeter=0;fontSize=10;endArrow=none;endFill=0;" edge="1" parent="1" source="TMxhiazHu43cB9fUqsHN-170" target="TMxhiazHu43cB9fUqsHN-169">
          <mxGeometry relative="1" as="geometry" />
        </mxCell>
        <mxCell id="TMxhiazHu43cB9fUqsHN-170" value="" style="ellipse;whiteSpace=wrap;html=1;aspect=fixed;fillColor=#000000;" vertex="1" parent="1">
          <mxGeometry x="-280" y="840" width="20" height="20" as="geometry" />
        </mxCell>
        <mxCell id="TMxhiazHu43cB9fUqsHN-178" style="edgeStyle=orthogonalEdgeStyle;rounded=0;orthogonalLoop=1;jettySize=auto;html=1;entryX=0.5;entryY=0;entryDx=0;entryDy=0;fontSize=10;endArrow=none;endFill=0;" edge="1" parent="1" source="TMxhiazHu43cB9fUqsHN-171" target="TMxhiazHu43cB9fUqsHN-169">
          <mxGeometry relative="1" as="geometry" />
        </mxCell>
        <mxCell id="TMxhiazHu43cB9fUqsHN-171" value="" style="ellipse;whiteSpace=wrap;html=1;aspect=fixed;" vertex="1" parent="1">
          <mxGeometry x="-230" y="840" width="20" height="20" as="geometry" />
        </mxCell>
        <mxCell id="TMxhiazHu43cB9fUqsHN-179" style="edgeStyle=orthogonalEdgeStyle;rounded=0;orthogonalLoop=1;jettySize=auto;html=1;entryX=0.917;entryY=0;entryDx=0;entryDy=0;entryPerimeter=0;fontSize=10;endArrow=none;endFill=0;" edge="1" parent="1" source="TMxhiazHu43cB9fUqsHN-172" target="TMxhiazHu43cB9fUqsHN-169">
          <mxGeometry relative="1" as="geometry" />
        </mxCell>
        <mxCell id="TMxhiazHu43cB9fUqsHN-172" value="" style="ellipse;whiteSpace=wrap;html=1;aspect=fixed;" vertex="1" parent="1">
          <mxGeometry x="-180" y="840" width="20" height="20" as="geometry" />
        </mxCell>
        <mxCell id="TMxhiazHu43cB9fUqsHN-204" style="edgeStyle=orthogonalEdgeStyle;rounded=0;orthogonalLoop=1;jettySize=auto;html=1;fontSize=10;endArrow=none;endFill=0;" edge="1" parent="1" source="TMxhiazHu43cB9fUqsHN-173" target="TMxhiazHu43cB9fUqsHN-202">
          <mxGeometry relative="1" as="geometry" />
        </mxCell>
        <mxCell id="TMxhiazHu43cB9fUqsHN-173" value="Pagamento" style="whiteSpace=wrap;html=1;rounded=0;shadow=0;sketch=0;fontSize=10;fillColor=#FFFFFF;" vertex="1" parent="1">
          <mxGeometry x="-260" y="1050" width="120" height="60" as="geometry" />
        </mxCell>
        <mxCell id="TMxhiazHu43cB9fUqsHN-182" style="edgeStyle=orthogonalEdgeStyle;rounded=0;orthogonalLoop=1;jettySize=auto;html=1;entryX=0.083;entryY=0;entryDx=0;entryDy=0;entryPerimeter=0;fontSize=10;endArrow=none;endFill=0;" edge="1" parent="1" source="TMxhiazHu43cB9fUqsHN-174" target="TMxhiazHu43cB9fUqsHN-173">
          <mxGeometry relative="1" as="geometry" />
        </mxCell>
        <mxCell id="TMxhiazHu43cB9fUqsHN-174" value="" style="ellipse;whiteSpace=wrap;html=1;aspect=fixed;fillColor=#000000;" vertex="1" parent="1">
          <mxGeometry x="-260" y="1000" width="20" height="20" as="geometry" />
        </mxCell>
        <mxCell id="TMxhiazHu43cB9fUqsHN-181" style="edgeStyle=orthogonalEdgeStyle;rounded=0;orthogonalLoop=1;jettySize=auto;html=1;entryX=0.5;entryY=0;entryDx=0;entryDy=0;fontSize=10;endArrow=none;endFill=0;" edge="1" parent="1" source="TMxhiazHu43cB9fUqsHN-175" target="TMxhiazHu43cB9fUqsHN-173">
          <mxGeometry relative="1" as="geometry" />
        </mxCell>
        <mxCell id="TMxhiazHu43cB9fUqsHN-175" value="" style="ellipse;whiteSpace=wrap;html=1;aspect=fixed;" vertex="1" parent="1">
          <mxGeometry x="-210" y="1000" width="20" height="20" as="geometry" />
        </mxCell>
        <mxCell id="TMxhiazHu43cB9fUqsHN-180" style="edgeStyle=orthogonalEdgeStyle;rounded=0;orthogonalLoop=1;jettySize=auto;html=1;entryX=0.917;entryY=0;entryDx=0;entryDy=0;entryPerimeter=0;fontSize=10;endArrow=none;endFill=0;" edge="1" parent="1" source="TMxhiazHu43cB9fUqsHN-176" target="TMxhiazHu43cB9fUqsHN-173">
          <mxGeometry relative="1" as="geometry" />
        </mxCell>
        <mxCell id="TMxhiazHu43cB9fUqsHN-176" value="" style="ellipse;whiteSpace=wrap;html=1;aspect=fixed;" vertex="1" parent="1">
          <mxGeometry x="-160" y="1000" width="20" height="20" as="geometry" />
        </mxCell>
        <mxCell id="TMxhiazHu43cB9fUqsHN-183" value="Id" style="text;html=1;align=center;verticalAlign=middle;resizable=0;points=[];autosize=1;strokeColor=none;fillColor=none;fontSize=10;" vertex="1" parent="1">
          <mxGeometry x="-260" y="980" width="20" height="20" as="geometry" />
        </mxCell>
        <mxCell id="TMxhiazHu43cB9fUqsHN-184" value="Tipo" style="text;html=1;align=center;verticalAlign=middle;resizable=0;points=[];autosize=1;strokeColor=none;fillColor=none;fontSize=10;" vertex="1" parent="1">
          <mxGeometry x="-215" y="980" width="30" height="20" as="geometry" />
        </mxCell>
        <mxCell id="TMxhiazHu43cB9fUqsHN-185" value="DescontoMaximo" style="text;html=1;align=center;verticalAlign=middle;resizable=0;points=[];autosize=1;strokeColor=none;fillColor=none;fontSize=10;" vertex="1" parent="1">
          <mxGeometry x="-140" y="1000" width="90" height="20" as="geometry" />
        </mxCell>
        <mxCell id="TMxhiazHu43cB9fUqsHN-186" value="Id" style="text;html=1;align=center;verticalAlign=middle;resizable=0;points=[];autosize=1;strokeColor=none;fillColor=none;fontSize=10;" vertex="1" parent="1">
          <mxGeometry x="-280" y="820" width="20" height="20" as="geometry" />
        </mxCell>
        <mxCell id="TMxhiazHu43cB9fUqsHN-187" value="Tamanho" style="text;html=1;align=center;verticalAlign=middle;resizable=0;points=[];autosize=1;strokeColor=none;fillColor=none;fontSize=10;" vertex="1" parent="1">
          <mxGeometry x="-250" y="820" width="60" height="20" as="geometry" />
        </mxCell>
        <mxCell id="TMxhiazHu43cB9fUqsHN-188" value="PrecoTotal" style="text;html=1;align=center;verticalAlign=middle;resizable=0;points=[];autosize=1;strokeColor=none;fillColor=none;fontSize=10;" vertex="1" parent="1">
          <mxGeometry x="-200" y="820" width="60" height="20" as="geometry" />
        </mxCell>
        <mxCell id="TMxhiazHu43cB9fUqsHN-196" style="edgeStyle=orthogonalEdgeStyle;rounded=0;orthogonalLoop=1;jettySize=auto;html=1;fontSize=10;endArrow=none;endFill=0;" edge="1" parent="1" source="TMxhiazHu43cB9fUqsHN-189" target="TMxhiazHu43cB9fUqsHN-193">
          <mxGeometry relative="1" as="geometry" />
        </mxCell>
        <mxCell id="TMxhiazHu43cB9fUqsHN-189" value="Tem" style="rhombus;whiteSpace=wrap;html=1;rounded=0;shadow=0;sketch=0;fontSize=10;" vertex="1" parent="1">
          <mxGeometry x="-35" y="870" width="75" height="50" as="geometry" />
        </mxCell>
        <mxCell id="TMxhiazHu43cB9fUqsHN-191" value="n" style="text;html=1;align=center;verticalAlign=middle;resizable=0;points=[];autosize=1;strokeColor=none;fillColor=none;fontSize=10;" vertex="1" parent="1">
          <mxGeometry x="-110" y="895" width="20" height="20" as="geometry" />
        </mxCell>
        <mxCell id="TMxhiazHu43cB9fUqsHN-192" value="" style="edgeStyle=orthogonalEdgeStyle;rounded=0;orthogonalLoop=1;jettySize=auto;html=1;fontSize=10;endArrow=none;endFill=0;" edge="1" parent="1" source="TMxhiazHu43cB9fUqsHN-169" target="TMxhiazHu43cB9fUqsHN-191">
          <mxGeometry relative="1" as="geometry">
            <mxPoint x="-160.00000000000023" y="920.0000000000002" as="sourcePoint" />
            <mxPoint x="-34.94827586206952" y="894.9655172413793" as="targetPoint" />
          </mxGeometry>
        </mxCell>
        <mxCell id="TMxhiazHu43cB9fUqsHN-193" value="1" style="text;html=1;align=center;verticalAlign=middle;resizable=0;points=[];autosize=1;strokeColor=none;fillColor=none;fontSize=10;" vertex="1" parent="1">
          <mxGeometry x="75" y="870" width="20" height="20" as="geometry" />
        </mxCell>
        <mxCell id="TMxhiazHu43cB9fUqsHN-199" style="edgeStyle=orthogonalEdgeStyle;rounded=0;orthogonalLoop=1;jettySize=auto;html=1;entryX=0.25;entryY=1;entryDx=0;entryDy=0;fontSize=10;endArrow=none;endFill=0;startArrow=none;" edge="1" parent="1" source="TMxhiazHu43cB9fUqsHN-200" target="TMxhiazHu43cB9fUqsHN-138">
          <mxGeometry relative="1" as="geometry" />
        </mxCell>
        <mxCell id="TMxhiazHu43cB9fUqsHN-203" style="edgeStyle=orthogonalEdgeStyle;rounded=0;orthogonalLoop=1;jettySize=auto;html=1;fontSize=10;endArrow=none;endFill=0;" edge="1" parent="1" source="TMxhiazHu43cB9fUqsHN-198" target="TMxhiazHu43cB9fUqsHN-202">
          <mxGeometry relative="1" as="geometry" />
        </mxCell>
        <mxCell id="TMxhiazHu43cB9fUqsHN-198" value="Tem" style="rhombus;whiteSpace=wrap;html=1;rounded=0;shadow=0;sketch=0;fontSize=10;" vertex="1" parent="1">
          <mxGeometry x="-20" y="1010" width="75" height="50" as="geometry" />
        </mxCell>
        <mxCell id="TMxhiazHu43cB9fUqsHN-200" value="1" style="text;html=1;align=center;verticalAlign=middle;resizable=0;points=[];autosize=1;strokeColor=none;fillColor=none;fontSize=10;" vertex="1" parent="1">
          <mxGeometry x="165" y="990" width="20" height="20" as="geometry" />
        </mxCell>
        <mxCell id="TMxhiazHu43cB9fUqsHN-201" value="" style="edgeStyle=orthogonalEdgeStyle;rounded=0;orthogonalLoop=1;jettySize=auto;html=1;fontSize=10;endArrow=none;endFill=0;entryX=0.478;entryY=1.033;entryDx=0;entryDy=0;entryPerimeter=0;" edge="1" parent="1" source="TMxhiazHu43cB9fUqsHN-198" target="TMxhiazHu43cB9fUqsHN-200">
          <mxGeometry relative="1" as="geometry">
            <mxPoint x="54.94827586206907" y="1034.9655172413793" as="sourcePoint" />
            <mxPoint x="175" y="1010" as="targetPoint" />
            <Array as="points">
              <mxPoint x="175" y="1035" />
              <mxPoint x="175" y="1010" />
              <mxPoint x="175" y="1010" />
            </Array>
          </mxGeometry>
        </mxCell>
        <mxCell id="TMxhiazHu43cB9fUqsHN-202" value="1" style="text;html=1;align=center;verticalAlign=middle;resizable=0;points=[];autosize=1;strokeColor=none;fillColor=none;fontSize=10;" vertex="1" parent="1">
          <mxGeometry x="-90" y="1060" width="20" height="20" as="geometry" />
        </mxCell>
        <mxCell id="TMxhiazHu43cB9fUqsHN-213" style="edgeStyle=orthogonalEdgeStyle;rounded=0;orthogonalLoop=1;jettySize=auto;html=1;fontSize=10;endArrow=none;endFill=0;" edge="1" parent="1" source="TMxhiazHu43cB9fUqsHN-205" target="TMxhiazHu43cB9fUqsHN-211">
          <mxGeometry relative="1" as="geometry" />
        </mxCell>
        <mxCell id="TMxhiazHu43cB9fUqsHN-224" style="edgeStyle=orthogonalEdgeStyle;rounded=0;orthogonalLoop=1;jettySize=auto;html=1;fontSize=10;endArrow=none;endFill=0;" edge="1" parent="1" source="TMxhiazHu43cB9fUqsHN-205" target="TMxhiazHu43cB9fUqsHN-222">
          <mxGeometry relative="1" as="geometry" />
        </mxCell>
        <mxCell id="TMxhiazHu43cB9fUqsHN-205" value="Sabor" style="whiteSpace=wrap;html=1;rounded=0;shadow=0;sketch=0;fontSize=10;fillColor=#FFFFFF;" vertex="1" parent="1">
          <mxGeometry x="-640" y="890" width="120" height="60" as="geometry" />
        </mxCell>
        <mxCell id="TMxhiazHu43cB9fUqsHN-209" style="edgeStyle=orthogonalEdgeStyle;rounded=0;orthogonalLoop=1;jettySize=auto;html=1;fontSize=10;endArrow=none;endFill=0;" edge="1" parent="1" source="TMxhiazHu43cB9fUqsHN-206" target="TMxhiazHu43cB9fUqsHN-208">
          <mxGeometry relative="1" as="geometry" />
        </mxCell>
        <mxCell id="TMxhiazHu43cB9fUqsHN-212" style="edgeStyle=orthogonalEdgeStyle;rounded=0;orthogonalLoop=1;jettySize=auto;html=1;fontSize=10;endArrow=none;endFill=0;" edge="1" parent="1" source="TMxhiazHu43cB9fUqsHN-206" target="TMxhiazHu43cB9fUqsHN-211">
          <mxGeometry relative="1" as="geometry" />
        </mxCell>
        <mxCell id="TMxhiazHu43cB9fUqsHN-206" value="Tem" style="rhombus;whiteSpace=wrap;html=1;rounded=0;shadow=0;sketch=0;fontSize=10;" vertex="1" parent="1">
          <mxGeometry x="-440" y="895" width="75" height="50" as="geometry" />
        </mxCell>
        <mxCell id="TMxhiazHu43cB9fUqsHN-208" value="n" style="text;html=1;align=center;verticalAlign=middle;resizable=0;points=[];autosize=1;strokeColor=none;fillColor=none;fontSize=10;" vertex="1" parent="1">
          <mxGeometry x="-340" y="910" width="20" height="20" as="geometry" />
        </mxCell>
        <mxCell id="TMxhiazHu43cB9fUqsHN-211" value="n" style="text;html=1;align=center;verticalAlign=middle;resizable=0;points=[];autosize=1;strokeColor=none;fillColor=none;fontSize=10;" vertex="1" parent="1">
          <mxGeometry x="-490" y="910" width="20" height="20" as="geometry" />
        </mxCell>
        <mxCell id="TMxhiazHu43cB9fUqsHN-225" style="edgeStyle=orthogonalEdgeStyle;rounded=0;orthogonalLoop=1;jettySize=auto;html=1;entryX=0.083;entryY=0;entryDx=0;entryDy=0;entryPerimeter=0;fontSize=10;endArrow=none;endFill=0;" edge="1" parent="1" source="TMxhiazHu43cB9fUqsHN-214" target="TMxhiazHu43cB9fUqsHN-205">
          <mxGeometry relative="1" as="geometry" />
        </mxCell>
        <mxCell id="TMxhiazHu43cB9fUqsHN-214" value="" style="ellipse;whiteSpace=wrap;html=1;aspect=fixed;fillColor=#000000;" vertex="1" parent="1">
          <mxGeometry x="-640" y="845" width="20" height="20" as="geometry" />
        </mxCell>
        <mxCell id="TMxhiazHu43cB9fUqsHN-226" style="edgeStyle=orthogonalEdgeStyle;rounded=0;orthogonalLoop=1;jettySize=auto;html=1;entryX=0.5;entryY=0;entryDx=0;entryDy=0;fontSize=10;endArrow=none;endFill=0;" edge="1" parent="1" source="TMxhiazHu43cB9fUqsHN-215" target="TMxhiazHu43cB9fUqsHN-205">
          <mxGeometry relative="1" as="geometry" />
        </mxCell>
        <mxCell id="TMxhiazHu43cB9fUqsHN-215" value="" style="ellipse;whiteSpace=wrap;html=1;aspect=fixed;" vertex="1" parent="1">
          <mxGeometry x="-590" y="845" width="20" height="20" as="geometry" />
        </mxCell>
        <mxCell id="TMxhiazHu43cB9fUqsHN-227" style="edgeStyle=orthogonalEdgeStyle;rounded=0;orthogonalLoop=1;jettySize=auto;html=1;entryX=0.917;entryY=0;entryDx=0;entryDy=0;entryPerimeter=0;fontSize=10;endArrow=none;endFill=0;" edge="1" parent="1" source="TMxhiazHu43cB9fUqsHN-216" target="TMxhiazHu43cB9fUqsHN-205">
          <mxGeometry relative="1" as="geometry" />
        </mxCell>
        <mxCell id="TMxhiazHu43cB9fUqsHN-216" value="" style="ellipse;whiteSpace=wrap;html=1;aspect=fixed;" vertex="1" parent="1">
          <mxGeometry x="-540" y="845" width="20" height="20" as="geometry" />
        </mxCell>
        <mxCell id="TMxhiazHu43cB9fUqsHN-223" style="edgeStyle=orthogonalEdgeStyle;rounded=0;orthogonalLoop=1;jettySize=auto;html=1;fontSize=10;endArrow=none;endFill=0;" edge="1" parent="1" source="TMxhiazHu43cB9fUqsHN-218" target="TMxhiazHu43cB9fUqsHN-222">
          <mxGeometry relative="1" as="geometry" />
        </mxCell>
        <mxCell id="TMxhiazHu43cB9fUqsHN-218" value="Tem" style="rhombus;whiteSpace=wrap;html=1;rounded=0;shadow=0;sketch=0;fontSize=10;" vertex="1" parent="1">
          <mxGeometry x="-485" y="1115" width="75" height="50" as="geometry" />
        </mxCell>
        <mxCell id="TMxhiazHu43cB9fUqsHN-221" style="edgeStyle=orthogonalEdgeStyle;rounded=0;orthogonalLoop=1;jettySize=auto;html=1;fontSize=10;endArrow=none;endFill=0;" edge="1" parent="1" source="TMxhiazHu43cB9fUqsHN-219" target="TMxhiazHu43cB9fUqsHN-218">
          <mxGeometry relative="1" as="geometry" />
        </mxCell>
        <mxCell id="TMxhiazHu43cB9fUqsHN-219" value="n" style="text;html=1;align=center;verticalAlign=middle;resizable=0;points=[];autosize=1;strokeColor=none;fillColor=none;fontSize=10;" vertex="1" parent="1">
          <mxGeometry x="-350" y="1130" width="20" height="20" as="geometry" />
        </mxCell>
        <mxCell id="TMxhiazHu43cB9fUqsHN-222" value="n" style="text;html=1;align=center;verticalAlign=middle;resizable=0;points=[];autosize=1;strokeColor=none;fillColor=none;fontSize=10;" vertex="1" parent="1">
          <mxGeometry x="-590" y="1040" width="20" height="20" as="geometry" />
        </mxCell>
        <mxCell id="TMxhiazHu43cB9fUqsHN-228" value="Id" style="text;html=1;align=center;verticalAlign=middle;resizable=0;points=[];autosize=1;strokeColor=none;fillColor=none;fontSize=10;" vertex="1" parent="1">
          <mxGeometry x="-640" y="825" width="20" height="20" as="geometry" />
        </mxCell>
        <mxCell id="TMxhiazHu43cB9fUqsHN-229" value="PrecoBase" style="text;html=1;align=center;verticalAlign=middle;resizable=0;points=[];autosize=1;strokeColor=none;fillColor=none;fontSize=10;" vertex="1" parent="1">
          <mxGeometry x="-610" y="825" width="60" height="20" as="geometry" />
        </mxCell>
        <mxCell id="TMxhiazHu43cB9fUqsHN-230" value="TempoPreparo" style="text;html=1;align=center;verticalAlign=middle;resizable=0;points=[];autosize=1;strokeColor=none;fillColor=none;fontSize=10;" vertex="1" parent="1">
          <mxGeometry x="-520" y="845" width="80" height="20" as="geometry" />
        </mxCell>
      </root>
    </mxGraphModel>
  </diagram>
</mxfile>
